<svg preserveAspectRatio="xMidYMid meet" width="100%" height="100%" overflow="visible" style="display: block;" viewBox="0 0 190.384 246.354" fill="none" xmlns="http://www.w3.org/2000/svg">
<g id="deco-coffee">
<g id="coffee">
<path d="M21.8893 81.7769L149.914 59.2026L157.514 210.538C157.814 216.502 154.705 222.056 149.104 224.128C142.189 226.687 130.977 230.087 114.554 232.983C98.13 235.879 86.4316 236.519 79.0586 236.479C73.0871 236.448 68.2657 232.292 66.5073 226.585L21.8893 81.7769Z" fill="#FFCF7B"/>
<path d="M5.73039 59.2405C4.96316 54.8893 7.86851 50.7401 12.2197 49.9728L148.123 26.0094C152.474 25.2422 156.624 28.1475 157.391 32.4987L160.708 51.3113C161.307 54.7088 159.646 58.05 156.442 59.328C147.594 62.8569 126.696 69.8969 87.0305 76.891C47.3652 83.8851 25.3199 84.417 15.7986 84.1272C12.3502 84.0222 9.64664 81.4506 9.04756 78.0531L5.73039 59.2405Z" fill="#60250E"/>
<path d="M30.141 124.114C29.2832 121.344 31.5605 118.518 34.4577 118.639C44.0265 119.038 64.4595 118.949 93.5423 113.821C122.625 108.693 141.856 101.788 150.711 98.1402C153.393 97.0357 156.499 98.912 156.64 101.808L160.138 173.485C160.193 174.618 159.762 175.715 158.864 176.409C154.716 179.612 140.47 188.812 107.781 194.576C75.0932 200.339 58.5598 196.566 53.5666 194.976C52.4854 194.631 51.7045 193.748 51.3688 192.664L30.141 124.114Z" fill="#CE7D46"/>
<path d="M18.257 38.4305C19.1072 29.4734 25.8339 22.1866 34.6946 20.6242L116.966 6.11759C125.826 4.55521 134.64 9.10191 138.502 17.2281L143.278 27.2762C144.228 29.2738 143.624 31.503 141.596 32.3851C135.799 34.9061 120.451 40.0276 81.7342 46.8544C43.0175 53.6812 26.8435 54.1178 20.534 53.7316C18.3264 53.5964 16.9968 51.708 17.2058 49.5061L18.257 38.4305Z" fill="var(--fill-0, #7B3115)"/>
</g>
<path id="deco-cofeee shadow" d="M39.2379 41.5609C35.0299 42.5677 30.9191 40.46 30.0562 36.8533C29.1932 33.2467 31.905 29.5067 36.113 28.4999C40.321 27.4931 44.4317 29.6008 45.2946 33.2074C46.1576 36.8141 43.4459 40.5541 39.2379 41.5609Z" fill="var(--fill-0, white)" fill-opacity="0.15"/>
</g>
</svg>
