<svg preserveAspectRatio="xMidYMid meet" width="100%" height="100%" overflow="visible" style="display: block;" viewBox="0 0 151.385 171" fill="none" xmlns="http://www.w3.org/2000/svg">
<g id="deco-css">
<path d="M0.0568152 15.2477C-0.676163 7.05589 5.77659 0 14.0011 0H137.384C145.608 0 152.061 7.0559 151.328 15.2477L139.932 142.61C139.367 148.925 135.143 154.306 129.116 156.274C113.221 161.464 83.0214 171 75.6925 171C68.3636 171 38.1637 161.464 22.2689 156.274C16.2419 154.306 12.0179 148.925 11.4528 142.61L0.0568152 15.2477Z" fill="#4DAFFF"/>
<path d="M117.162 81.7578L113.99 123.526C113.808 125.925 112.211 127.983 109.933 128.755L77.0893 139.888C75.8084 140.322 74.4184 140.311 73.1446 139.856L41.7992 128.661C39.5167 127.846 37.9486 125.738 37.8246 123.318L37.0125 107.479C36.8428 104.169 39.388 101.349 42.6974 101.179L49.6875 100.821C52.9969 100.651 55.8173 103.197 55.9868 106.506L56.1498 109.687C56.2738 112.108 57.8416 114.216 60.1239 115.031L73.3069 119.739C74.5805 120.194 75.9705 120.205 77.2513 119.771L91.9385 114.792C94.2162 114.02 95.8127 111.962 95.9949 109.564L96.953 96.9546C97.2177 93.4718 94.4631 90.5 90.9703 90.5H40.6925C37.3788 90.5 34.6925 87.8137 34.6925 84.5V77.5C34.6925 74.1863 37.3788 71.5 40.6925 71.5H93.383C96.5111 71.5 99.1143 69.0968 99.3638 65.9786L99.884 59.4786C100.163 55.9874 97.4055 53 93.9031 53H37.6925C34.3788 53 31.6925 50.3137 31.6925 47V40C31.6925 36.6863 34.3788 34 37.6925 34H114.484C117.986 34 120.744 36.9872 120.464 40.4783L117.162 81.7578Z" fill="var(--fill-0, white)"/>
</g>
</svg>
