<svg preserveAspectRatio="xMidYMid meet" width="100%" height="100%" overflow="visible" style="display: block;" viewBox="0 0 182.261 166.628" fill="none" xmlns="http://www.w3.org/2000/svg">
<defs>
<clipPath id="folder-front-clip">
<path d="M6.73916 70.7253C5.71242 63.4196 10.8025 56.6649 18.1081 55.6382L153.695 36.5826C161.001 35.5559 167.756 40.6459 168.782 47.9516L180.402 130.627C181.428 137.932 176.338 144.687 169.033 145.714L33.4455 164.769C26.1399 165.796 19.3851 160.706 18.3584 153.4L6.73916 70.7253Z"/>
</clipPath>
</defs>
<g id="deco-folder">
<g id="deco-folder_2">
<path d="M1.85908 36.0017C0.832337 28.6961 5.92239 21.9414 13.228 20.9146L54.979 15.0469C59.1426 14.4617 63.3387 15.8711 66.305 18.8509L71.6061 24.176C74.5724 27.1558 78.7685 28.5651 82.9321 27.98L143.698 19.4398C151.004 18.4131 157.759 23.5031 158.785 30.8088L170.405 113.484C171.431 120.79 166.341 127.544 159.036 128.571L30.8893 146.581C23.5836 147.608 16.8289 142.518 15.8022 135.212L1.85908 36.0017Z" fill="#4DAFFF"/>
<path d="M16.106 53.3903C15.5927 49.7375 18.1377 46.3601 21.7905 45.8468L144.15 28.6503C147.803 28.1369 151.18 30.682 151.693 34.3348L164.242 123.624C164.755 127.277 162.21 130.654 158.558 131.167L36.1983 148.364C32.5455 148.877 29.1682 146.332 28.6548 142.679L16.106 53.3903Z" fill="white"/>
<path class="folder-front" d="M6.73916 70.7253C5.71242 63.4196 10.8025 56.6649 18.1081 55.6382L153.695 36.5826C161.001 35.5559 167.756 40.6459 168.782 47.9516L180.402 130.627C181.428 137.932 176.338 144.687 169.033 145.714L33.4455 164.769C26.1399 165.796 19.3851 160.706 18.3584 153.4L6.73916 70.7253Z" fill="var(--fill-0, #7DC4FF)"/>
<g clip-path="url(#folder-front-clip)">
<ellipse cx="51.4" cy="70.4" rx="7.834" ry="6.715" fill="white" fill-opacity="0.15"/>
<ellipse cx="40.3" cy="89.4" rx="5.889" ry="5.047" fill="white" fill-opacity="0.15"/>
</g>
</g>
</g>
</svg>
