<svg preserveAspectRatio="xMidYMid meet" width="100%" height="100%" overflow="visible" style="display: block;" viewBox="0 0 151.385 171" fill="none" xmlns="http://www.w3.org/2000/svg">
<g id="deco-html">
<path d="M0.0568152 15.2477C-0.676163 7.05589 5.77659 0 14.0011 0H137.384C145.608 0 152.061 7.0559 151.328 15.2477L139.932 142.61C139.367 148.925 135.143 154.306 129.116 156.274C113.221 161.464 83.0214 171 75.6925 171C68.3636 171 38.1637 161.464 22.2689 156.274C16.2419 154.306 12.0179 148.925 11.4528 142.61L0.0568152 15.2477Z" fill="#F5672C"/>
<path d="M121.062 44C121.062 47.3137 118.375 50 115.062 50H57.3333C53.8334 50 51.0764 52.9832 51.3519 56.4722L51.9045 63.4722C52.1509 66.5931 54.7553 69 57.8859 69H111.873C115.388 69 118.151 72.008 117.852 75.5103L113.833 122.577C113.631 124.942 112.055 126.965 109.812 127.738L77.4974 138.882C76.2083 139.326 74.8063 139.318 73.5223 138.859L42.2078 127.675C39.9602 126.873 38.402 124.814 38.2398 122.433L36.9922 104.132C36.7668 100.826 39.264 97.9637 42.57 97.7382L49.553 97.2618C52.8591 97.0363 55.7219 99.5336 55.9474 102.84L56.3489 108.726C56.5113 111.107 58.0694 113.165 60.3169 113.968L73.6331 118.724C74.9169 119.183 76.3185 119.191 77.6072 118.746L91.9317 113.807C94.1755 113.033 95.7523 111.009 95.9541 108.645L97.1603 94.5102C97.4592 91.0079 94.6971 88 91.1821 88H40.327C37.1966 88 34.5922 85.5933 34.3456 82.4725L30.793 37.4719C30.5177 33.983 33.2746 31 36.7744 31H115.062C118.375 31 121.062 33.6863 121.062 37V44Z" fill="var(--fill-0, white)"/>
</g>
</svg>
