<svg preserveAspectRatio="xMidYMid meet" width="100%" height="100%" overflow="visible" style="display: block;" viewBox="0 0 81.3326 159.596" fill="none" xmlns="http://www.w3.org/2000/svg">
<g id="deco-iphoe">
<path d="M69.0559 0C75.8361 0 81.3326 5.49643 81.3326 12.2766V147.319C81.3326 154.1 75.8361 159.596 69.0559 159.596H12.2766C5.49643 159.596 0 154.1 0 147.319V12.2766C0 5.49643 5.49643 0 12.2766 0H69.0559Z" fill="var(--fill-0, #26314C)"/>
<path d="M67.5214 4.60373C72.6065 4.60373 76.7288 8.72605 76.7288 13.8112V145.785C76.7288 150.87 72.6065 154.992 67.5214 154.992H13.8112C8.72605 154.992 4.60373 150.87 4.60373 145.785V13.8112C4.60373 8.72605 8.72605 4.60373 13.8112 4.60373H67.5214Z" fill="#7DC4FF"/>
<path d="M4.62021 42.2383V20.1016L76.7138 119.816V141.953L4.62021 42.2383Z" fill="#A2D5FF"/>
<path d="M29.9242 11.5093C29.9242 9.39052 31.6419 7.67288 33.7607 7.67288H47.5719C49.6907 7.67288 51.4083 9.39052 51.4083 11.5093C51.4083 13.6281 49.6907 15.3458 47.5719 15.3458H33.7607C31.6419 15.3458 29.9242 13.6281 29.9242 11.5093Z" fill="var(--fill-0, #26314C)"/>
</g>
</svg>
