<svg preserveAspectRatio="xMidYMid meet" width="100%" height="100%" overflow="visible" style="display: block;" viewBox="0 0 320.776 285.188" fill="none" xmlns="http://www.w3.org/2000/svg">
<g id="deco-macbook">
<g id="Vector">
<path d="M39.9948 157.55C44.1072 153.543 50.0514 152.047 55.5706 153.63L243.43 207.498C248.949 209.08 253.197 213.499 254.561 219.076L264.96 261.589C267.879 273.523 256.817 284.158 245.008 280.771L15.4029 214.933C3.59364 211.547 -0.151674 196.666 8.64745 188.093L39.9948 157.55Z" fill="#D3D5E4"/>
<path d="M56.6162 163.551C57.6394 162.414 59.2222 161.959 60.6932 162.381L234.448 212.204C235.919 212.626 237.021 213.85 237.285 215.358L241.326 238.362C241.837 241.273 239.124 243.714 236.283 242.899L42.871 187.439C40.0303 186.625 39.0232 183.117 40.9991 180.92L56.6162 163.551Z" fill="#26314C"/>
<path d="M106.389 213.939C107.322 212.387 109.18 211.655 110.921 212.154L162.594 226.971C164.334 227.47 165.522 229.076 165.49 230.886L165.327 240.202C165.28 242.831 162.753 244.701 160.225 243.976L103.918 227.831C101.39 227.106 100.237 224.18 101.592 221.926L106.389 213.939Z" fill="#A9B0C1"/>
<path d="M83.3049 23.2228C85.7406 14.7286 94.6011 9.81716 103.095 12.2528L278.045 62.4188C286.539 64.8545 291.451 73.715 289.015 82.2092L256.765 194.677C254.33 203.171 245.469 208.083 236.975 205.647L62.0254 155.481C53.5311 153.045 48.6197 144.185 51.0554 135.69L83.3049 23.2228Z" fill="#26314C"/>
<path d="M92.635 34.2206C94.4617 27.8499 101.107 24.1663 107.478 25.9931L267.047 71.7489C273.418 73.5756 277.101 80.221 275.275 86.5917L247.435 183.679C245.609 190.05 238.963 193.733 232.593 191.907L73.0231 146.151C66.6524 144.324 62.9688 137.679 64.7956 131.308L92.635 34.2206Z" fill="#7DC4FF"/>
<path d="M105.754 155.536L78.0209 147.584L237.4 63.2477L265.132 71.1998L105.754 155.536Z" fill="var(--fill-0, #A2D5FF)"/>
</g>
</g>
</svg>
