<svg preserveAspectRatio="xMidYMid meet" width="100%" height="100%" overflow="visible" style="display: block;" viewBox="0 0 75.3214 111" fill="none" xmlns="http://www.w3.org/2000/svg">
<g id="deco-mouse">
<path d="M0 37.6607C0 16.8613 16.8613 0 37.6607 0C58.4602 0 75.3214 16.8613 75.3214 37.6607V73.3393C75.3214 94.1387 58.4602 111 37.6607 111C16.8613 111 0 94.1387 0 73.3393V37.6607Z" fill="#D3D5E4"/>
<path d="M37.6607 0C38.103 0 38.5435 0.00810289 38.9821 0.0232282V47.5714C38.9821 48.3012 38.3905 48.8929 37.6607 48.8929C36.9309 48.8929 36.3393 48.3012 36.3393 47.5714V0.0232282C36.7779 0.00810291 37.2184 0 37.6607 0Z" fill="#A9B0C1"/>
<path d="M33.6964 21.8036C33.6964 19.6142 35.4713 17.8393 37.6607 17.8393C39.8501 17.8393 41.625 19.6142 41.625 21.8036V29.7321C41.625 31.9216 39.8501 33.6964 37.6607 33.6964C35.4713 33.6964 33.6964 31.9216 33.6964 29.7321V21.8036Z" fill="var(--fill-0, #26314C)"/>
</g>
</svg>
