<svg preserveAspectRatio="xMidYMid meet" width="100%" height="100%" overflow="visible" style="display: block;" viewBox="0 0 32.7173 32.7173" fill="none" xmlns="http://www.w3.org/2000/svg">
<path id="Star 3" d="M14.7925 1.16656C15.2573 -0.388855 17.46 -0.388851 17.9248 1.16656L19.5441 6.58462C20.4902 9.7505 22.9669 12.2272 26.1327 13.1733L31.5508 14.7925C33.1062 15.2573 33.1062 17.46 31.5508 17.9248L26.1327 19.5441C22.9668 20.4902 20.4902 22.9669 19.5441 26.1327L17.9248 31.5508C17.46 33.1062 15.2573 33.1062 14.7925 31.5508L13.1733 26.1327C12.2272 22.9668 9.75049 20.4902 6.58461 19.5441L1.16656 17.9248C-0.388855 17.46 -0.388851 15.2573 1.16656 14.7925L6.58462 13.1733C9.7505 12.2272 12.2272 9.75049 13.1733 6.58461L14.7925 1.16656Z" fill="var(--fill-0, #F5672C)"/>
</svg>
