<svg preserveAspectRatio="xMidYMid meet" width="100%" height="100%" overflow="visible" style="display: block;" viewBox="0 0 89.3244 105.189" fill="none" xmlns="http://www.w3.org/2000/svg">
<path id="deco-stylus" fill-rule="evenodd" clip-rule="evenodd" d="M77.0563 0.920598C74.2538 2.62931 51.3659 28.717 26.6051 58.4247C5.86546 83.3077 7.4026 81.1681 4.69269 88.916C3.3799 92.6688 2.14756 96.4705 1.95372 97.3646C1.75988 98.2587 1.17497 99.9548 0.653536 101.133C-0.357349 103.419 -0.177051 105.189 1.06644 105.189C1.48126 105.189 3.08673 104.371 4.63407 103.372C6.18093 102.372 10.2429 99.8332 13.6603 97.729L19.8734 93.9031L33.4424 77.6795C40.9053 68.7565 51.3393 56.4126 56.6287 50.248C78.5159 24.7423 86.5191 15.1476 88.3437 12.2264C89.2446 10.7847 89.4215 9.92163 89.2819 7.65611C89.09 4.55222 88.1363 2.88566 85.5422 1.12025C83.4768 -0.285589 79.1987 -0.38638 77.0563 0.920598Z" fill="var(--fill-0, #D3D5E4)"/>
</svg>
