<svg preserveAspectRatio="xMidYMid slice" width="100%" height="100%" overflow="visible" style="display: block;" viewBox="0 0 984 400" fill="none" xmlns="http://www.w3.org/2000/svg">
<g id="Frame 2131330195">
<rect width="984" height="400" rx="4" fill="var(--fill-0, #212121)"/>
<g id="MURJAK" filter="url(#filter0_d_0_9)">
<path d="M192 252.239V147.761H220.358L247.224 230.895L274.239 147.761H302.447V252.239H282.895V179.254L258.567 252.239H235.88L211.701 179.254V252.239H192Z" fill="var(--fill-0, white)"/>
<path d="M359.494 252.239C345.762 252.239 335.912 248.657 329.942 241.492C324.071 234.328 321.136 224.328 321.136 211.492V147.761H341.285V212.836C341.285 219.9 343.026 225.124 346.509 228.507C349.991 231.89 354.668 233.582 360.539 233.582H367.255C373.225 233.582 377.951 231.89 381.434 228.507C384.917 225.124 386.658 219.9 386.658 212.836V147.761H406.658V211.492C406.658 224.328 403.673 234.328 397.703 241.492C391.832 248.657 382.031 252.239 368.3 252.239H359.494Z" fill="var(--fill-0, white)"/>
<path d="M425.354 252.239V147.761H469.085C480.628 147.761 489.533 150.348 495.802 155.522C502.17 160.597 505.354 167.711 505.354 176.866V179.552C505.354 184.03 504.459 187.96 502.668 191.343C500.876 194.627 498.488 197.313 495.503 199.403C492.618 201.492 489.483 202.935 486.1 203.731C491.971 204.726 496.449 207.065 499.533 210.746C502.717 214.328 504.309 219.502 504.309 226.269V252.239H484.16V229.552C484.16 223.98 482.817 219.851 480.13 217.164C477.543 214.478 473.364 213.134 467.593 213.134H445.503V252.239H425.354ZM445.503 195.075H469.533C474.409 195.075 478.14 193.93 480.727 191.642C483.414 189.353 484.757 186.02 484.757 181.642V179.851C484.757 175.473 483.414 172.139 480.727 169.851C478.14 167.562 474.409 166.418 469.533 166.418H445.503V195.075Z" fill="var(--fill-0, white)"/>
<path d="M549.748 252.239C538.006 252.239 529.698 249.204 524.822 243.134C520.046 236.965 517.658 228.308 517.658 217.164V202.985H537.658V218.358C537.658 228.507 542.136 233.582 551.091 233.582H555.27C559.648 233.582 562.882 232.438 564.971 230.149C567.161 227.761 568.255 223.831 568.255 218.358V147.761H588.255V217.164C588.255 228.408 585.817 237.065 580.942 243.134C576.166 249.204 568.006 252.239 556.464 252.239H549.748Z" fill="var(--fill-0, white)"/>
<path d="M593.228 252.239L632.482 147.761H658.004L697.109 252.239H675.168L667.706 231.194H622.78L615.318 252.239H593.228ZM645.168 168.06L629.348 212.686H661.139L645.168 168.06Z" fill="var(--fill-0, white)"/>
<path d="M708.12 252.239V147.761H728.269V190.746L766.925 147.761H789.612V150L751.403 192.089L792 250V252.239H768.866L737.672 207.164L728.269 217.612V252.239H708.12Z" fill="var(--fill-0, white)"/>
</g>
</g>
<defs>
<filter id="filter0_d_0_9" x="157.9" y="113.661" width="668.2" height="172.678" filterUnits="userSpaceOnUse" color-interpolation-filters="sRGB">
<feFlood flood-opacity="0" result="BackgroundImageFix"/>
<feColorMatrix in="SourceAlpha" type="matrix" values="0 0 0 0 0 0 0 0 0 0 0 0 0 0 0 0 0 0 127 0" result="hardAlpha"/>
<feOffset/>
<feGaussianBlur stdDeviation="17.05"/>
<feComposite in2="hardAlpha" operator="out"/>
<feColorMatrix type="matrix" values="0 0 0 0 0 0 0 0 0 0 0 0 0 0 0 0 0 0 0.4 0"/>
<feBlend mode="normal" in2="BackgroundImageFix" result="effect1_dropShadow_0_9"/>
<feBlend mode="normal" in="SourceGraphic" in2="effect1_dropShadow_0_9" result="shape"/>
</filter>
</defs>
</svg>
