<svg preserveAspectRatio="none" width="100%" height="100%" overflow="visible" style="display: block;" viewBox="0 0 30 30" fill="none" xmlns="http://www.w3.org/2000/svg">
<g id="Frame 2131330215">
<path id="Icon" d="M28.6504 10.2002V19.7998C28.6504 21.0821 28.6485 21.9629 28.5928 22.6455C28.5383 23.3122 28.4387 23.6704 28.3066 23.9297C28.0046 24.5224 27.5224 25.0046 26.9297 25.3066C26.6704 25.4387 26.3122 25.5383 25.6455 25.5928C24.9629 25.6485 24.0821 25.6504 22.7998 25.6504H7.2002C5.91787 25.6504 5.03713 25.6485 4.35449 25.5928C3.68784 25.5383 3.32956 25.4387 3.07031 25.3066C2.4776 25.0046 1.99536 24.5224 1.69336 23.9297C1.56133 23.6704 1.46169 23.3122 1.40723 22.6455C1.35146 21.9629 1.34961 21.0821 1.34961 19.7998V10.0928L11.4736 17.1787C12.3739 17.8089 13.1076 18.349 13.9482 18.5586C14.6389 18.7307 15.3611 18.7307 16.0518 18.5586C16.8924 18.349 17.6261 17.8089 18.5264 17.1787L28.6494 10.0928C28.6494 10.1282 28.6504 10.1641 28.6504 10.2002ZM7.2002 4.34961H22.7998C24.0821 4.34961 24.9629 4.35146 25.6455 4.40723C26.3122 4.46169 26.6704 4.56133 26.9297 4.69336C27.5224 4.99536 28.0046 5.4776 28.3066 6.07031C28.4027 6.25893 28.4812 6.49996 28.5381 6.87402L16.9785 14.9668C15.8956 15.7248 15.6374 15.8801 15.3994 15.9395C15.1374 16.0048 14.8626 16.0048 14.6006 15.9395C14.3626 15.8801 14.1044 15.7248 13.0215 14.9668L1.46094 6.87402C1.51785 6.49988 1.59729 6.25895 1.69336 6.07031C1.99536 5.4776 2.4776 4.99536 3.07031 4.69336C3.32956 4.56133 3.68784 4.46169 4.35449 4.40723C5.03714 4.35146 5.91787 4.34961 7.2002 4.34961Z" stroke="var(--stroke-0, #0086FC)" stroke-width="2.7" stroke-linecap="round" stroke-linejoin="round"/>
</g>
</svg>
