<svg preserveAspectRatio="none" width="100%" height="100%" overflow="visible" style="display: block;" viewBox="0 0 274.305 200" fill="none" xmlns="http://www.w3.org/2000/svg">
<g id="Frame 2131330201" clip-path="url(#clip0_0_4)">
<g id="Vector">
<path d="M230.862 130.81C246.997 127.964 262.384 138.738 265.229 154.874L269.773 180.643C270.19 183.012 267.764 184.867 265.588 183.842L258.774 180.634C258.188 180.358 257.494 180.496 257.038 180.955C252.875 185.145 247.424 188.138 241.165 189.241L182.733 199.544C166.598 202.39 151.211 191.616 148.366 175.48C145.521 159.345 156.295 143.958 172.43 141.113L230.862 130.81Z" fill="#44C67F"/>
<path d="M215.562 163.632C216.416 168.472 213.184 173.088 208.343 173.942C203.502 174.795 198.886 171.563 198.033 166.722C197.179 161.882 200.412 157.266 205.252 156.412C210.093 155.559 214.709 158.791 215.562 163.632Z" fill="white"/>
<path d="M241.857 158.995C242.71 163.836 239.478 168.452 234.637 169.305C229.797 170.159 225.181 166.927 224.327 162.086C223.474 157.245 226.706 152.629 231.546 151.776C236.387 150.922 241.003 154.155 241.857 158.995Z" fill="white"/>
<path d="M189.268 168.268C190.122 173.109 186.889 177.725 182.049 178.578C177.208 179.432 172.592 176.2 171.739 171.359C170.885 166.518 174.117 161.902 178.958 161.049C183.799 160.195 188.415 163.427 189.268 168.268Z" fill="white"/>
<path d="M73.5661 32.8493C53.3967 29.2929 34.1632 42.7603 30.6068 62.9297L24.927 95.1413C24.4057 98.1019 27.4391 100.42 30.1589 99.1399L38.6761 95.1292C39.4081 94.7846 40.2758 94.9577 40.8461 95.5316C46.0503 100.769 52.8634 104.509 60.6872 105.889L133.727 118.768C153.896 122.324 173.13 108.857 176.686 88.6874C180.243 68.5181 166.775 49.2845 146.606 45.7281L73.5661 32.8493Z" fill="#44C67F"/>
<path d="M92.6905 73.8767C91.6236 79.9275 95.6639 85.6976 101.715 86.7645C107.765 87.8314 113.536 83.7912 114.602 77.7404C115.669 71.6896 111.629 65.9195 105.578 64.8526C99.5275 63.7857 93.7575 67.8259 92.6905 73.8767Z" fill="white"/>
<path d="M59.8227 68.0812C58.7558 74.132 62.796 79.9021 68.8468 80.969C74.8976 82.0359 80.6677 77.9957 81.7346 71.9449C82.8015 65.8941 78.7613 60.124 72.7105 59.0571C66.6597 57.9902 60.8896 62.0304 59.8227 68.0812Z" fill="white"/>
<path d="M125.558 79.6722C124.491 85.723 128.532 91.4931 134.583 92.56C140.633 93.6269 146.403 89.5867 147.47 83.5359C148.537 77.4851 144.497 71.715 138.446 70.6481C132.395 69.5812 126.625 73.6214 125.558 79.6722Z" fill="white"/>
<path d="M27.2197 127.93C27.041 125.697 29.8743 124.597 31.2489 126.366L36.0371 132.527C38.835 136.127 43.2575 138.076 47.8023 137.712L55.5802 137.09C57.813 136.911 58.9129 139.744 57.1442 141.119L50.9834 145.907C47.3835 148.705 45.4344 153.127 45.7982 157.672L46.4208 165.45C46.5995 167.683 43.7662 168.783 42.3916 167.014L37.6033 160.853C34.8055 157.253 30.383 155.304 25.8382 155.668L18.0603 156.291C15.8274 156.469 14.7276 153.636 16.4962 152.261L22.6571 147.473C26.257 144.675 28.2061 140.253 27.8423 135.708L27.2197 127.93Z" fill="#F5672C"/>
<path d="M258.814 68.042C260.047 66.1721 262.957 67.049 262.952 69.289L262.935 77.0918C262.924 81.6511 265.21 85.9091 269.016 88.4195L275.53 92.7157C277.4 93.9491 276.523 96.8591 274.283 96.854L266.48 96.8363C261.921 96.8259 257.663 99.112 255.152 102.918L250.856 109.431C249.623 111.301 246.713 110.424 246.718 108.184L246.735 100.382C246.746 95.8224 244.46 91.5643 240.654 89.054L234.14 84.7577C232.27 83.5244 233.147 80.6143 235.387 80.6194L243.19 80.6372C247.749 80.6475 252.007 78.3614 254.518 74.5555L258.814 68.042Z" fill="#4DAFFF"/>
<path d="M7.82925 1.52026C7.8804 -0.0374442 9.92531 -0.576144 10.7373 0.754187L13.5656 5.38821C15.2183 8.09596 18.1233 9.78953 21.2938 9.89363L26.7199 10.0718C28.2776 10.1229 28.8163 12.1678 27.4859 12.9798L22.8519 15.8081C20.1442 17.4608 18.4506 20.3658 18.3465 23.5363L18.1683 28.9624C18.1172 30.5201 16.0723 31.0588 15.2603 29.7285L12.432 25.0944C10.7793 22.3867 7.87431 20.6931 4.70377 20.589L-0.722274 20.4109C-2.27998 20.3597 -2.81868 18.3148 -1.48835 17.5028L3.14568 14.6745C5.85343 13.0219 7.547 10.1168 7.6511 6.9463L7.82925 1.52026Z" fill="var(--fill-0, #FFCF7B)"/>
</g>
</g>
<defs>
<clipPath id="clip0_0_4">
<rect width="274.305" height="200" fill="white"/>
</clipPath>
</defs>
</svg>
