<svg preserveAspectRatio="none" width="100%" height="100%" overflow="visible" style="display: block;" viewBox="0 0 167.051 148.3" fill="none" xmlns="http://www.w3.org/2000/svg">
<g id="Vector">
<path d="M0 13.6368C0 6.10541 6.10541 0 13.6368 0H56.678C60.9703 0 65.0121 2.0209 67.5874 5.45472L72.1899 11.5913C74.7652 15.0251 78.807 17.046 83.0993 17.046H145.743C153.275 17.046 159.38 23.1514 159.38 30.6828V115.913C159.38 123.444 153.275 129.55 145.743 129.55H13.6368C6.10541 129.55 0 123.444 0 115.913V13.6368Z" fill="#4DAFFF"/>
<path d="M11.9322 33.2397C11.9322 29.474 14.9849 26.4213 18.7506 26.4213H144.891C148.657 26.4213 151.71 29.474 151.71 33.2397V125.288C151.71 129.054 148.657 132.107 144.891 132.107H18.7506C14.9849 132.107 11.9322 129.054 11.9322 125.288V33.2397Z" fill="white"/>
<path d="M0 49.4334C0 41.902 6.10541 35.7966 13.6368 35.7966H153.414C160.946 35.7966 167.051 41.902 167.051 49.4334V134.664C167.051 142.195 160.946 148.3 153.414 148.3H13.6368C6.10541 148.3 0 142.195 0 134.664V49.4334Z" fill="var(--fill-0, #7DC4FF)"/>
</g>
</svg>
