<svg preserveAspectRatio="none" width="100%" height="100%" overflow="visible" style="display: block;" viewBox="0 0 98.0036 98.0036" fill="none" xmlns="http://www.w3.org/2000/svg">
<g id="Frame 2131330200">
<g clip-path="url(#clip0_0_8)">
<rect width="98.0036" height="98.0036" rx="10.2087" fill="var(--fill-0, #EFEFF5)"/>
<g id="Vector">
<path d="M52.1922 88.7589C53.7389 83.4057 61.0009 76.0502 66.862 77.697C72.7231 79.3438 74.9638 89.3692 73.4175 94.7221C71.8709 100.075 65.866 103.079 60.0052 101.433C54.144 99.7862 50.646 94.1116 52.1922 88.7589Z" fill="#F5672C"/>
<path d="M82.3901 63.6471C80.8439 68.9999 73.5815 76.3558 67.7207 74.7094C61.8596 73.0626 59.6186 63.0367 61.1652 57.6836C62.7115 52.3307 68.7164 49.3266 74.5775 50.9734C80.4383 52.6198 83.9364 58.2943 82.3901 63.6471Z" fill="#F5672C"/>
<path d="M54.8385 61.2204C60.1865 62.7228 67.496 69.9183 65.8014 75.7843C64.1068 81.6504 54.0499 83.9661 48.7013 82.4636C43.3533 80.9611 40.3914 74.9874 42.086 69.1214C43.7806 63.2553 49.4899 59.7179 54.8385 61.2204Z" fill="#F5672C"/>
<path d="M79.7461 91.1844C74.3975 89.6819 67.0883 82.4868 68.7826 76.6204C70.4772 70.7543 80.5345 68.4383 85.8827 69.9411C91.2309 71.4439 94.1925 77.4173 92.4979 83.2833C90.8037 89.1497 85.094 92.6868 79.7461 91.1844Z" fill="#F5672C"/>
<path d="M69.7217 67.7834C65.0769 66.4784 60.2229 69.1891 58.88 73.8379C57.537 78.4868 60.2137 83.3133 64.8585 84.6183C69.5033 85.9233 74.3573 83.2126 75.7002 78.5637C77.0432 73.9149 74.3665 69.0884 69.7217 67.7834Z" fill="var(--fill-0, #FFCF7B)"/>
</g>
<path id="Vector_2" d="M36.2082 59.3066C33.0511 58.7375 30.2183 56.5648 28.829 53.6448C26.4679 55.8494 23.0256 56.8273 19.8804 56.1942C16.7352 55.5618 13.9478 53.3317 12.6182 50.3829C11.2953 47.4339 11.4587 43.8407 13.2479 40.9726C10.0054 39.9074 7.3216 37.2332 6.23928 33.9689C5.14354 30.7035 5.66443 26.9242 7.60824 24.0766C9.54533 21.2278 12.8532 19.3757 16.2553 19.2493C15.6393 16.4311 16.106 13.4789 17.569 10.9912C19.0253 8.50361 21.4363 6.71009 24.2375 6.11526C27.0054 5.52658 29.2368 6.06656 31.4196 7.10572C33.6025 8.14622 35.2213 10.003 36.6683 12.5275C38.938 10.7111 41.1167 9.57864 43.5326 9.41449C45.9418 9.25051 48.2148 9.56899 50.5709 11.1343C52.9609 12.7175 54.5426 15.2723 54.9851 18.1233C55.4276 20.9737 54.7791 23.89 53.1664 26.2841C56.2887 27.6544 58.684 30.5942 59.4334 33.9548C60.1896 37.3166 59.2848 41.0218 57.0679 43.6574C54.8576 46.2934 51.3806 47.7936 47.9707 47.5911C48.5853 50.9173 47.412 54.3179 45.0989 56.5723C42.7792 58.8268 39.3653 59.8758 36.2082 59.3066Z" fill="var(--fill-0, #44C67F)"/>
<path id="Vector_3" d="M27.8526 23.573C32.312 20.8565 38.1292 22.2693 40.8457 26.7286C43.5623 31.188 42.1495 37.0052 37.6902 39.7218C33.2308 42.4383 27.4136 41.0255 24.697 36.5662C21.9805 32.1068 23.3933 26.2896 27.8526 23.573Z" fill="var(--fill-0, #FFCF7B)"/>
</g>
</g>
<defs>
<clipPath id="clip0_0_8">
<rect width="98.0036" height="98.0036" rx="10.2087" fill="white"/>
</clipPath>
</defs>
</svg>
