<svg preserveAspectRatio="none" width="100%" height="100%" overflow="visible" style="display: block;" viewBox="0 0 240 202.742" fill="none" xmlns="http://www.w3.org/2000/svg">
<g id="Frame 2131330201" clip-path="url(#clip0_0_6)">
<g id="Vector">
<path d="M128.398 9.20767C129.174 3.07285 135.046 -1.07441 141.087 0.245494L231.717 20.0464C237.758 21.3663 241.365 27.5847 239.512 33.4842L210.702 125.208C209.274 129.756 205.307 133.03 200.564 133.509C188.056 134.77 164.343 136.928 158.959 135.752C153.576 134.576 132.923 122.725 122.081 116.361C117.97 113.949 115.731 109.318 116.329 104.589L128.398 9.20767Z" fill="#4DAFFF"/>
<path d="M203.742 76.8554L194.709 107.027C194.19 108.759 192.687 110.015 190.89 110.216L164.978 113.123C163.968 113.237 162.949 113.005 162.086 112.467L140.858 99.2134C139.312 98.2484 138.499 96.4482 138.796 94.6504L140.742 82.8855C141.148 80.4274 143.47 78.7642 145.928 79.1707L151.12 80.0293C153.579 80.4358 155.242 82.7581 154.835 85.2162L154.444 87.5792C154.147 89.3769 154.96 91.1769 156.506 92.1419L165.434 97.716C166.296 98.2545 167.315 98.4858 168.326 98.3724L179.913 97.0721C181.71 96.8705 183.213 95.6154 183.732 93.8831L186.459 84.7747C187.213 82.259 185.666 79.634 183.1 79.0735L146.17 71.0047C143.736 70.4729 142.193 68.0686 142.725 65.6346L143.849 60.4928C144.38 58.0588 146.785 56.5167 149.219 57.0485L187.922 65.5044C190.22 66.0065 192.517 64.659 193.201 62.4086L194.626 57.7176C195.392 55.198 193.846 52.5611 191.273 51.999L149.984 42.9781C147.55 42.4463 146.008 40.042 146.54 37.608L147.663 32.4662C148.195 30.0321 150.599 28.4901 153.033 29.0219L209.439 41.3456C212.012 41.9076 213.558 44.5444 212.793 47.064L203.742 76.8554Z" fill="var(--fill-0, white)"/>
<path d="M55.0546 115.601C54.6829 104.957 63.0106 96.0261 73.6551 95.6544L142.183 93.2613C152.828 92.8896 161.758 101.217 162.13 111.862L164.523 180.39C164.895 191.035 156.567 199.965 145.923 200.337L77.3943 202.73C66.7498 203.102 57.8194 194.774 57.4477 184.129L55.0546 115.601Z" fill="#FFCF7B"/>
<path d="M138.891 151.888C141.511 151.797 143.814 152.165 145.799 152.994C147.795 153.821 149.367 155.015 150.515 156.574C151.252 157.575 151.774 158.689 152.082 159.914C152.374 161.075 151.417 162.1 150.22 162.142L147.183 162.248C146.083 162.287 145.196 161.435 144.635 160.487C144.32 159.955 143.893 159.504 143.355 159.136C142.282 158.403 140.849 158.068 139.057 158.131C137.839 158.173 136.816 158.382 135.989 158.756C135.162 159.119 134.535 159.606 134.108 160.219C133.692 160.832 133.498 161.518 133.524 162.276C133.523 162.909 133.674 163.456 133.978 163.918C134.293 164.378 134.715 164.772 135.244 165.098C135.773 165.413 136.382 165.686 137.068 165.915C137.755 166.133 138.486 166.314 139.262 166.459L142.46 167.107C144.012 167.398 145.441 167.808 146.748 168.338C148.055 168.867 149.195 169.536 150.166 170.342C151.138 171.148 151.902 172.11 152.459 173.23C153.028 174.349 153.343 175.644 153.406 177.114C153.47 179.275 152.984 181.167 151.947 182.791C150.922 184.403 149.402 185.683 147.387 186.627C145.383 187.56 142.944 188.077 140.072 188.177C137.222 188.276 134.725 187.926 132.58 187.127C130.446 186.327 128.757 185.091 127.514 183.421C126.652 182.243 126.056 180.857 125.725 179.262C125.481 178.085 126.435 177.055 127.637 177.013L130.668 176.907C131.794 176.868 132.7 177.742 133.171 178.766C133.338 179.131 133.545 179.465 133.789 179.767C134.426 180.527 135.256 181.091 136.282 181.458C137.318 181.813 138.48 181.968 139.767 181.923C141.031 181.878 142.122 181.657 143.04 181.257C143.969 180.856 144.682 180.318 145.176 179.645C145.67 178.972 145.902 178.211 145.873 177.36C145.845 176.568 145.586 175.909 145.096 175.386C144.618 174.862 143.924 174.426 143.014 174.078C142.116 173.729 141.018 173.423 139.72 173.157L135.842 172.326C132.841 171.706 130.451 170.656 128.674 169.176C126.896 167.697 125.967 165.652 125.887 163.043C125.801 160.906 126.305 159.018 127.398 157.381C128.503 155.743 130.052 154.441 132.043 153.474C134.034 152.507 136.317 151.978 138.891 151.888Z" fill="#26314C"/>
<path d="M120.427 177.662C120.507 179.937 120.063 181.932 119.099 183.645C118.147 185.358 116.785 186.7 115.012 187.671C113.24 188.642 111.158 189.17 108.768 189.253C106.642 189.328 104.698 189.021 102.937 188.335C101.187 187.636 99.7785 186.535 98.7135 185.03C97.9883 183.998 97.4937 182.774 97.2295 181.359C97.0132 180.199 97.9624 179.206 99.141 179.165L102.35 179.053C103.512 179.012 104.423 179.949 104.91 181.005C104.966 181.126 105.026 181.243 105.092 181.356C105.482 181.998 106 182.487 106.644 182.821C107.3 183.143 108.064 183.288 108.938 183.258C109.857 183.226 110.627 183.004 111.245 182.591C111.874 182.166 112.342 181.563 112.648 180.781C112.955 180 113.088 179.045 113.049 177.919L112.264 155.446C112.223 154.263 113.148 153.271 114.331 153.23L117.426 153.122C118.609 153.08 119.601 154.006 119.642 155.188L120.427 177.662Z" fill="#26314C"/>
<path d="M0.390912 84.2452C-1.12425 79.3198 1.91247 74.1557 6.95323 73.0855L82.5738 57.0307C87.6145 55.9606 92.4875 59.4454 93.1042 64.5615L102.692 144.104C103.168 148.048 101.279 151.895 97.8411 153.886C88.7746 159.135 71.5061 168.909 67.0143 169.863C62.5224 170.817 42.7723 168.902 32.3551 167.789C28.4051 167.367 25.116 164.619 23.948 160.822L0.390912 84.2452Z" fill="#F5672C"/>
<path d="M78.2953 86.1219C78.7265 88.1529 77.4296 90.1488 75.3986 90.58L40.0173 98.0917C37.8723 98.5471 36.5707 100.734 37.1935 102.837L38.4431 107.055C39.0002 108.936 40.9096 110.072 42.8283 109.665L75.9169 102.64C78.0712 102.182 80.1555 103.667 80.428 105.852L84.0898 135.222C84.2736 136.697 83.5707 138.142 82.2966 138.909L63.9412 149.943C63.209 150.383 62.3487 150.561 61.502 150.447L40.8542 147.667C39.3722 147.467 38.1494 146.408 37.7401 144.97L34.5942 133.916C34.0259 131.919 35.1839 129.84 37.1807 129.271L41.3986 128.071C43.3955 127.502 45.4751 128.66 46.0435 130.657L47.0555 134.213C47.4649 135.651 48.6876 136.71 50.1696 136.909L58.9499 138.091C59.7963 138.205 60.6564 138.028 61.3884 137.588L69.5251 132.696C70.7996 131.93 71.5027 130.485 71.3187 129.009L70.2188 120.189C69.9463 118.004 67.862 116.52 65.7076 116.977L34.5389 123.595C32.6203 124.002 30.7109 122.866 30.1537 120.985L22.1208 93.8668C21.4981 91.7643 22.7996 89.5773 24.9446 89.1219L72.9263 78.935C74.9573 78.5039 76.9532 79.8007 77.3844 81.8317L78.2953 86.1219Z" fill="var(--fill-0, white)"/>
</g>
</g>
<defs>
<clipPath id="clip0_0_6">
<rect width="240" height="202.742" fill="white"/>
</clipPath>
</defs>
</svg>
