<svg preserveAspectRatio="none" width="100%" height="100%" overflow="visible" style="display: block;" viewBox="0 0 274.305 200" fill="none" xmlns="http://www.w3.org/2000/svg">
<g id="Frame 2131330201" clip-path="url(#clip0_0_19)">
<g id="Vector">
<path d="M274.305 78.1503C274.305 121.312 239.316 156.301 196.155 156.301C152.994 156.301 118.005 121.312 118.005 78.1503C118.005 34.9891 152.994 0 196.155 0C239.316 0 274.305 34.9891 274.305 78.1503Z" fill="#EFEFF5"/>
<path d="M14.7049 151.626C16.4941 147.559 20.3254 144.762 24.7444 144.298L175.154 128.489C179.573 128.025 183.902 129.964 186.497 133.57L206.283 161.06C211.837 168.776 206.983 179.613 197.528 180.607L13.6948 199.929C4.2397 200.923 -2.76148 191.331 1.06672 182.629L14.7049 151.626Z" fill="#D3D5E4"/>
<path d="M28.3709 151.114C28.7752 150.001 29.7791 149.216 30.9568 149.092L170.074 134.47C171.251 134.346 172.397 134.905 173.024 135.91L182.592 151.245C183.802 153.186 182.563 155.723 180.289 155.962L25.4333 172.238C23.1589 172.477 21.4195 170.253 22.2002 168.103L28.3709 151.114Z" fill="var(--fill-0, #26314C)"/>
<path d="M78.6914 172.839C78.9104 171.455 80.0317 170.391 81.4253 170.244L122.797 165.896C124.191 165.749 125.509 166.557 126.011 167.865L128.594 174.597C129.323 176.497 128.051 178.572 126.027 178.785L80.9454 183.523C78.9213 183.736 77.2463 181.971 77.5644 179.96L78.6914 172.839Z" fill="#A9B0C1"/>
<path d="M6.83963 42.6878C6.12483 35.8869 11.0586 29.7942 17.8595 29.0794L157.933 14.3571C164.734 13.6423 170.826 18.576 171.541 25.377L181.006 115.424C181.72 122.225 176.787 128.318 169.986 129.032L29.9124 143.755C23.1115 144.47 17.0188 139.536 16.304 132.735L6.83963 42.6878Z" fill="var(--fill-0, #26314C)"/>
<path d="M16.7224 47.8742C16.1863 42.7735 19.8866 38.204 24.9873 37.6679L152.746 24.2398C157.847 23.7037 162.417 27.404 162.953 32.5047L171.123 110.238C171.659 115.338 167.959 119.908 162.858 120.444L35.0987 133.872C29.9981 134.408 25.4285 130.708 24.8924 125.607L16.7224 47.8742Z" fill="#7DC4FF"/>
<path d="M116.321 42.0748C121.846 41.494 126.797 45.5027 127.377 51.0284L134.981 123.374L131.052 123.787L123.618 53.0619C123.172 48.8115 119.363 45.7279 115.113 46.1744L68.9419 51.0272C64.6915 51.4741 61.6079 55.2821 62.0545 59.5325L69.488 130.258L65.5586 130.671L57.9548 58.325C57.374 52.7993 61.3828 47.8491 66.9085 47.2682L116.321 42.0748Z" fill="#4DAFFF"/>
<path d="M98.1973 50.6014C100.006 50.4113 101.626 51.7234 101.816 53.5319C102.006 55.3403 100.694 56.9606 98.8856 57.1508L87.0969 58.3898C85.2884 58.5799 83.6682 57.2677 83.478 55.4593C83.2879 53.6508 84.6 52.0305 86.4085 51.8404L98.1973 50.6014Z" fill="#4DAFFF"/>
<path d="M106.437 94.4706C107.499 94.3589 108.451 95.1298 108.563 96.1924C108.675 97.2551 107.904 98.207 106.841 98.3187L74.9013 101.676C73.8386 101.787 72.8867 101.017 72.775 99.9539C72.6633 98.8913 73.4342 97.9393 74.4968 97.8276L106.437 94.4706Z" fill="#4DAFFF"/>
<path d="M118.692 81.5105C119.754 81.3988 120.706 82.1697 120.818 83.2323C120.93 84.295 120.159 85.2469 119.096 85.3586L73.6879 90.1312C72.6253 90.2429 71.6733 89.472 71.5616 88.4094C71.4499 87.3467 72.2208 86.3948 73.2835 86.2831L118.692 81.5105Z" fill="#4DAFFF"/>
<path d="M117.478 69.966C118.541 69.8543 119.493 70.6252 119.605 71.6878C119.716 72.7505 118.946 73.7024 117.883 73.8141L72.4745 78.5867C71.4119 78.6984 70.4599 77.9275 70.3482 76.8649C70.2365 75.8022 71.0074 74.8503 72.0701 74.7386L117.478 69.966Z" fill="#4DAFFF"/>
<path d="M61.3046 131.118L39.1002 133.451L129.01 26.7347L151.213 24.401L61.3046 131.118Z" fill="white" fill-opacity="0.3"/>
<path d="M222.467 162.41C220.109 151.948 226.679 141.555 237.141 139.196C247.604 136.838 257.997 143.408 260.356 153.87L264.401 171.817C266.759 182.28 260.189 192.673 249.727 195.032C239.264 197.39 228.871 190.82 226.513 180.357L222.467 162.41Z" fill="#D3D5E4"/>
<path d="M237.141 139.196C237.364 139.146 237.586 139.1 237.809 139.058L243.2 162.976C243.283 163.343 243.052 163.708 242.685 163.79C242.318 163.873 241.953 163.643 241.87 163.276L236.479 139.358C236.698 139.3 236.919 139.246 237.141 139.196Z" fill="#A9B0C1"/>
<path d="M237.619 150.613C237.371 149.512 238.063 148.418 239.164 148.17C240.265 147.922 241.359 148.613 241.608 149.714L242.507 153.703C242.755 154.804 242.063 155.898 240.962 156.146C239.861 156.395 238.767 155.703 238.518 154.602L237.619 150.613Z" fill="var(--fill-0, #26314C)"/>
</g>
</g>
<defs>
<clipPath id="clip0_0_19">
<rect width="274.305" height="200" fill="white"/>
</clipPath>
</defs>
</svg>
