<svg preserveAspectRatio="none" width="100%" height="100%" overflow="visible" style="display: block;" viewBox="0 0 162.534 238.219" fill="none" xmlns="http://www.w3.org/2000/svg">
<g id="Group 7">
<path id="Star 8" d="M68.7195 68.1493C69.517 68.0706 69.9291 69.0767 69.3057 69.5801L67.1339 71.3335C65.8649 72.3581 65.1971 73.9528 65.3574 75.5759L65.6317 78.3536C65.7104 79.1511 64.7043 79.5633 64.2009 78.9398L62.4475 76.768C61.4229 75.499 59.8282 74.8312 58.2051 74.9915L55.4274 75.2658C54.6299 75.3445 54.2178 74.3384 54.8412 73.8351L57.013 72.0816C58.282 71.057 58.9498 69.4623 58.7895 67.8392L58.5152 65.0615C58.4365 64.264 59.4426 63.8519 59.946 64.4753L61.6994 66.6471C62.724 67.9161 64.3187 68.5839 65.9418 68.4236L68.7195 68.1493Z" fill="var(--fill-0, #FFCF7B)"/>
<path id="Star 9" d="M155.956 107.085C156.583 107.583 156.178 108.592 155.38 108.519L152.6 108.265C150.976 108.117 149.386 108.796 148.371 110.072L146.633 112.256C146.134 112.883 145.125 112.478 145.198 111.68L145.452 108.901C145.601 107.277 144.922 105.687 143.645 104.671L141.461 102.933C140.834 102.435 141.239 101.426 142.037 101.499L144.817 101.753C146.441 101.902 148.031 101.222 149.046 99.946L150.784 97.7617C151.283 97.1347 152.292 97.5396 152.219 98.3376L151.964 101.117C151.816 102.741 152.495 104.331 153.771 105.347L155.956 107.085Z" fill="var(--fill-0, #FFCF7B)"/>
<path id="Star 10" d="M53.8603 37.3475C54.9167 37.3818 55.2826 38.7685 54.3806 39.3195L51.2386 41.2388C49.4027 42.3603 48.2549 44.3309 48.1851 46.4811L48.0657 50.161C48.0314 51.2175 46.6447 51.5833 46.0937 50.6813L44.1744 47.5393C43.0528 45.7034 41.0823 44.5556 38.932 44.4858L35.2521 44.3664C34.1957 44.3321 33.8298 42.9454 34.7318 42.3944L37.8738 40.4751C39.7098 39.3536 40.8576 37.383 40.9273 35.2328L41.0468 31.5529C41.081 30.4964 42.4677 30.1306 43.0187 31.0326L44.9381 34.1746C46.0596 36.0105 48.0301 37.1583 50.1804 37.2281L53.8603 37.3475Z" fill="var(--fill-0, #FFCF7B)"/>
<g id="Vector">
<path d="M86.4237 148.734C87.3998 159.427 78.0398 162.184 57.9864 164.015C37.933 165.845 28.5697 181.803 22.911 180.853C17.2524 179.904 22.1266 153.795 42.7786 142.252C63.4307 130.709 85.4476 138.04 86.4237 148.734Z" fill="#7B3115"/>
<path d="M65.6545 148.111C60.9242 157.751 68.6826 163.668 86.7603 172.539C104.838 181.409 107.886 199.659 113.51 200.792C119.135 201.926 123.905 175.798 108.737 157.641C93.568 139.485 70.3848 138.471 65.6545 148.111Z" fill="#60250E"/>
<path d="M33.9529 134.54L121.594 150.721L112.575 188.805L110.127 197.571C105.288 214.897 89.875 227.161 71.9045 227.983C65.6048 228.271 59.2892 227.111 53.4967 224.617C36.6525 217.367 26.2914 200.046 27.991 181.786L28.7778 173.334L33.9529 134.54Z" fill="#F8CD9E"/>
<path d="M62.4065 184.114C61.5197 188.916 57.7418 192.245 53.9682 191.548C50.1946 190.852 47.8544 186.393 48.7411 181.591C49.6278 176.788 53.4058 173.459 57.1794 174.156C60.9529 174.853 63.2932 179.311 62.4065 184.114Z" fill="#343433"/>
<path d="M91.6007 189.504C90.714 194.307 86.936 197.635 83.1624 196.938C79.3888 196.242 77.0486 191.784 77.9353 186.981C78.822 182.178 82.6 178.849 86.3736 179.546C90.1472 180.243 92.4874 184.701 91.6007 189.504Z" fill="#343433"/>
<path d="M66.7903 142.532C71.5607 148.136 81.4596 146.27 89.6513 132.018C97.843 117.766 110.932 115.166 110.579 109.631C110.225 104.096 89.484 104.853 79.6272 113.237C69.7704 121.622 62.0199 136.929 66.7903 142.532Z" fill="#B25C32"/>
<path d="M89.5116 127.721C88.6537 135.57 78.6481 139.782 62.6199 131.895C46.5916 124.008 33.2794 129.458 30.2218 124.295C27.1642 119.132 46.2077 107.484 60.1504 109.131C74.093 110.778 90.3694 119.872 89.5116 127.721Z" fill="#98441F"/>
<path d="M71.4418 136.589C71.7987 143.939 80.7771 148.506 95.9665 142.22C111.156 135.935 123.11 141.868 126.209 137.268C129.309 132.669 112.421 120.604 99.4949 121.226C86.5694 121.848 71.0849 129.239 71.4418 136.589Z" fill="#B5501F"/>
<path d="M82.7088 144.788C80.2828 154.403 70.6735 153.783 51.3585 148.91C32.0435 144.037 18.3101 154.897 13.3175 152.247C8.32487 149.597 21.0314 128.46 43.9379 125.079C66.8445 121.698 85.1348 135.172 82.7088 144.788Z" fill="#A25028"/>
<path d="M70.5851 140.479C69.5933 148.845 78.7512 151.428 98.3851 153.756C118.019 156.083 127.136 169.046 132.681 168.55C138.226 168.054 133.54 147.308 113.352 137.316C93.1646 127.324 71.5768 132.114 70.5851 140.479Z" fill="#A24E16"/>
<path d="M81.3468 142.223C81.6963 152.955 72.1911 155.161 52.065 155.816C31.9389 156.471 21.6589 171.854 16.0654 170.576C10.4719 169.297 16.8638 143.518 38.1552 133.202C59.4466 122.885 80.9974 131.491 81.3468 142.223Z" fill="#98441F"/>
<path d="M72.8001 136.909C68.0487 148.22 76.0635 153.935 94.6886 161.759C113.314 169.583 116.625 189.612 122.403 190.23C128.182 190.848 132.806 161.119 117.068 142.59C101.331 124.06 77.5515 125.598 72.8001 136.909Z" fill="#B25C32"/>
<path d="M79.7977 121.923C85.1487 127.729 81.7463 138.038 65.2666 144.933C48.7869 151.827 44.1441 165.442 38.2431 164.352C32.3422 163.263 36.0826 141.256 46.4886 131.831C56.8945 122.406 74.4468 116.118 79.7977 121.923Z" fill="#C05A28"/>
<path d="M79.6914 119.688C73.8103 122.729 72.0243 132.006 82.3795 141.875C92.7347 151.744 96.9191 168.445 101.741 169.216C106.563 169.987 111.406 152.348 103.862 136.848C96.3168 121.348 85.5724 116.646 79.6914 119.688Z" fill="#CE7D46"/>
<path d="M94.6983 202.137C94.5224 203.09 93.6072 203.72 92.6543 203.544C91.7014 203.368 91.0715 202.453 91.2474 201.5C91.4234 200.547 92.3385 199.917 93.2914 200.093C94.2444 200.269 94.8742 201.184 94.6983 202.137Z" fill="var(--fill-0, #E5A768)"/>
<path d="M41.2781 192.274C41.1022 193.227 41.7321 194.142 42.685 194.318C43.6379 194.494 44.5531 193.864 44.729 192.911C44.9049 191.958 44.2751 191.043 43.3221 190.867C42.3692 190.691 41.4541 191.321 41.2781 192.274Z" fill="var(--fill-0, #E5A768)"/>
<path d="M90.7902 207.839C90.6143 208.792 89.6992 209.422 88.7463 209.246C87.7933 209.07 87.1635 208.155 87.3394 207.202C87.5153 206.249 88.4305 205.619 89.3834 205.795C90.3363 205.971 90.9662 206.886 90.7902 207.839Z" fill="var(--fill-0, #E5A768)"/>
<path d="M42.8925 198.996C42.7166 199.949 43.3465 200.864 44.2994 201.04C45.2523 201.216 46.1674 200.586 46.3434 199.633C46.5193 198.68 45.8894 197.765 44.9365 197.589C43.9836 197.413 43.0685 198.043 42.8925 198.996Z" fill="var(--fill-0, #E5A768)"/>
<path d="M85.0885 203.932C84.9125 204.884 83.9974 205.514 83.0445 205.338C82.0915 205.162 81.4617 204.247 81.6376 203.294C81.8136 202.341 82.7287 201.712 83.6816 201.888C84.6345 202.063 85.2644 202.979 85.0885 203.932Z" fill="var(--fill-0, #E5A768)"/>
<path d="M49.6138 197.382C49.4378 198.335 50.0677 199.25 51.0206 199.426C51.9735 199.602 52.8887 198.972 53.0646 198.019C53.2405 197.066 52.6107 196.151 51.6577 195.975C50.7048 195.799 49.7897 196.429 49.6138 197.382Z" fill="var(--fill-0, #E5A768)"/>
</g>
<g id="Vector_2">
<path d="M136.791 2.69391C155.084 8.25759 165.403 27.5978 159.84 45.8913C156.32 57.464 147.287 65.8452 136.493 69.0329C131.416 70.5326 126.732 73.8417 125.192 78.9071L124.825 80.1139C123.044 85.9679 116.856 89.2702 111.002 87.4899C105.148 85.7095 101.845 79.5207 103.626 73.6668L103.993 72.4599C105.533 67.3945 103.485 62.0381 100.102 57.9655C92.9109 49.3081 90.0736 37.3168 93.593 25.744C99.1565 7.45042 118.497 -2.8696 136.791 2.69391Z" fill="#FFCF7B"/>
<path fill-rule="evenodd" clip-rule="evenodd" d="M138.486 35.2086C142.149 36.3226 144.484 38.7811 145.241 41.8779C145.973 44.8752 145.144 48.1194 143.271 50.822C140.145 55.3316 134.057 58.5417 126.064 57.7635C124.563 62.9926 123.408 68.3151 122.624 72.3737C122.224 74.4464 121.922 76.1821 121.72 77.3974C121.619 78.0048 121.543 78.4819 121.492 78.8056C121.467 78.9675 121.448 79.0911 121.436 79.1734C121.43 79.2143 121.425 79.2451 121.422 79.2653C121.421 79.2754 121.42 79.2832 121.419 79.2879C121.419 79.2902 121.418 79.2931 121.418 79.2931C121.418 79.2931 121.354 79.2843 119.223 78.9724C117.028 78.6511 117.028 78.6499 117.028 78.6499L117.029 78.6482C117.029 78.6482 117.03 78.6436 117.03 78.6405C117.031 78.6343 117.032 78.6252 117.034 78.6136C117.037 78.5902 117.043 78.5559 117.049 78.5114C117.063 78.4226 117.082 78.2923 117.108 78.1236C117.161 77.7858 117.24 77.2934 117.343 76.6697C117.551 75.4226 117.859 73.6486 118.268 71.5326C119.044 67.5116 120.186 62.2292 121.676 56.9689C121.288 56.8672 120.897 56.7572 120.502 56.6371C119.787 56.4196 119.098 56.1819 118.434 55.9277C116.777 61.1468 114.828 66.1975 113.273 69.9898C112.456 71.9806 111.745 73.6314 111.237 74.7863C110.983 75.3639 110.78 75.8182 110.639 76.129C110.569 76.2842 110.515 76.4041 110.477 76.4855C110.459 76.5261 110.444 76.5572 110.435 76.5785C110.43 76.5891 110.426 76.5975 110.423 76.6032C110.422 76.6059 110.421 76.6096 110.421 76.6096L110.42 76.6121C110.42 76.6121 110.396 76.6022 108.406 75.6824C106.461 74.7843 106.394 74.7531 106.391 74.752C106.391 74.752 106.393 74.7486 106.394 74.7464C106.396 74.7421 106.399 74.7349 106.403 74.7256C106.412 74.7071 106.425 74.6791 106.442 74.6415C106.477 74.5658 106.529 74.4517 106.596 74.3025C106.731 74.004 106.928 73.5634 107.175 73.0003C107.67 71.8735 108.367 70.2567 109.168 68.305C110.758 64.4305 112.747 59.2609 114.392 53.9929C107.898 50.1699 104.856 44.3828 104.669 39.1259C104.553 35.8429 105.569 32.6703 107.729 30.5438C109.975 28.3325 113.197 27.5179 116.769 28.6042C118.985 29.278 120.384 30.8951 121.146 32.8526C121.876 34.7297 122.062 36.9864 121.962 39.3137C121.805 42.9917 120.907 47.3268 119.706 51.6624C120.366 51.9248 121.06 52.1695 121.793 52.3922C122.189 52.5128 122.581 52.6213 122.966 52.7199C124.366 48.4214 126.035 44.2906 127.987 41.1332C129.218 39.1407 130.661 37.3705 132.365 36.2301C134.143 35.0394 136.241 34.526 138.486 35.2086ZM137.195 39.4536C136.443 39.2249 135.711 39.3292 134.833 39.9173C133.879 40.5557 132.837 41.7252 131.761 43.4657C130.155 46.0635 128.694 49.5657 127.405 53.4216C133.48 53.745 137.632 51.1686 139.624 48.2944C140.936 46.4008 141.3 44.4426 140.931 42.9311C140.586 41.5193 139.526 40.1624 137.195 39.4536ZM115.478 32.8491C113.33 32.1958 111.834 32.7287 110.841 33.706C109.762 34.7684 109.02 36.6266 109.104 38.9691C109.223 42.3174 111.074 46.4836 115.677 49.565C116.697 45.7368 117.401 42.1089 117.529 39.1248C117.617 37.0745 117.422 35.5197 117.01 34.4626C116.63 33.4858 116.123 33.0452 115.478 32.8491Z" fill="white" fill-opacity="0.5"/>
<path d="M101.579 72.6789C102.15 70.8034 104.132 69.7453 106.008 70.3157L124.686 75.9961C126.561 76.5665 127.619 78.5493 127.049 80.4248L123.951 90.6127C123.38 92.4882 121.397 93.5463 119.522 92.9759L100.844 87.2955C98.9685 86.7251 97.9105 84.7423 98.4808 82.8668L101.579 72.6789Z" fill="#26314C"/>
<path d="M117.983 18.8904C114.22 19.6529 110.64 17.6565 109.986 14.4312C109.333 11.2059 111.854 7.97312 115.617 7.21058C119.38 6.44804 122.96 8.4445 123.613 11.6698C124.267 14.8951 121.746 18.1279 117.983 18.8904Z" fill="var(--fill-0, white)" fill-opacity="0.3"/>
<path d="M107.86 23.3078C106.278 23.6284 104.773 22.7891 104.498 21.4332C104.223 20.0773 105.283 18.7183 106.865 18.3977C108.447 18.0772 109.952 18.9165 110.227 20.2723C110.501 21.6282 109.442 22.9872 107.86 23.3078Z" fill="var(--fill-0, white)" fill-opacity="0.3"/>
</g>
</g>
</svg>
