<svg preserveAspectRatio="none" width="100%" height="100%" overflow="visible" style="display: block;" viewBox="0 0 240 174.82" fill="none" xmlns="http://www.w3.org/2000/svg">
<g id="Vector">
<path fill-rule="evenodd" clip-rule="evenodd" d="M66.1365 10.2575C49.4221 16.7111 38.5302 34.3319 39.7169 52.9972C40.2934 62.0648 43.0376 71.0699 48.5107 81.8494C60.1564 104.787 89.3325 136.901 104.084 147.791C118.836 158.682 130.286 162.996 137.049 165.103C143.813 167.21 145.546 168.139 153.978 168.489C162.409 168.838 165.381 167.695 170.308 166.044C177.479 163.642 182.188 160.697 187.56 155.254C196.96 145.731 200.063 138.883 197.894 132.452C196.834 129.311 194.502 126.737 185.088 118.314C178.758 112.651 171.948 107.21 169.956 106.224C166.466 104.498 162.135 105.011 161.856 105.092C161.576 105.173 160.353 105.451 159.236 105.817C158.119 106.184 155.061 106.984 149.302 112.515C140.827 120.65 138.516 121.399 131.879 118.159C122.751 113.703 104.216 95.7193 93.3855 80.811C90.6868 77.0953 89.8734 75.081 89.5589 71.3346C89.306 68.3267 90.4308 65.3665 92.6173 63.2855L96.2936 59.7866C108.296 48.3662 108.351 44.9715 96.7979 28.6247C87.5631 15.5575 84.672 12.3923 80.0283 10.2663C75.5762 8.22731 71.4011 8.22466 66.1365 10.2575Z" fill="#26314C"/>
<path d="M133.024 41.508C151.959 40.4171 167.927 55.4485 167.982 74.4145C167.987 76.243 166.509 77.7305 164.68 77.7358C162.852 77.7409 161.366 76.2633 161.36 74.4352C161.317 59.2681 148.547 47.2471 133.405 48.1196L132.21 48.1894C130.384 48.2943 128.819 46.8979 128.714 45.0725C128.609 43.2473 130.004 41.6831 131.829 41.5779L133.024 41.508Z" fill="#44C67F" fill-opacity="0.5"/>
<path d="M127.83 19.6617C162.265 16.3619 191.466 44.6832 189.222 79.2033C189.103 81.0274 187.528 82.41 185.704 82.2918C183.879 82.1731 182.496 80.5973 182.614 78.7726C184.594 48.3235 158.836 23.3434 128.462 26.2538L124.705 26.6134C122.885 26.7876 121.267 25.4536 121.093 23.6335C120.918 21.8133 122.254 20.1957 124.074 20.0212L127.83 19.6617Z" fill="#44C67F" fill-opacity="0.75"/>
<path d="M121.585 0.373655C170.699 -4.33266 212.347 36.0614 209.146 85.2958C209.027 87.1201 207.451 88.5029 205.627 88.3843C203.802 88.2653 202.42 86.6895 202.538 84.8651C205.474 39.7018 167.27 2.65008 122.218 6.96711L116.757 7.48962C114.938 7.66323 113.321 6.32931 113.146 4.50976C112.972 2.68966 114.307 1.07187 116.128 0.897458L121.585 0.373655Z" fill="#44C67F"/>
<path d="M58.6051 136.014C58.495 133.867 61.2435 132.89 62.5137 134.624L66.9383 140.667C69.5236 144.197 73.713 146.189 78.0834 145.965L85.5627 145.581C87.7099 145.471 88.6872 148.22 86.9525 149.49L80.9101 153.915C77.3794 156.5 75.3878 160.689 75.6119 165.06L75.9954 172.539C76.1055 174.686 73.3569 175.663 72.0867 173.929L67.6622 167.886C65.0768 164.356 60.8874 162.364 56.5171 162.588L49.0378 162.972C46.8906 163.082 45.9133 160.333 47.6479 159.063L53.6904 154.638C57.2211 152.053 59.2127 147.864 58.9886 143.493L58.6051 136.014Z" fill="#4DAFFF"/>
<path d="M18.155 22.841C19.0804 21.6279 21.017 22.3595 20.909 23.8815L20.533 29.1829C20.3133 32.2806 21.6682 35.2808 24.1374 37.1642L28.3632 40.3875C29.5763 41.3128 28.8447 43.2494 27.3228 43.1414L22.0213 42.7654C18.9236 42.5457 15.9234 43.9006 14.04 46.3698L10.8167 50.5956C9.89141 51.8087 7.95481 51.0771 8.06276 49.5552L8.43877 44.2537C8.65848 41.156 7.3036 38.1558 4.83439 36.2724L0.608611 33.0492C-0.604524 32.1238 0.127104 30.1872 1.64904 30.2952L6.95048 30.6712C10.0482 30.8909 13.0484 29.536 14.9318 27.0668L18.155 22.841Z" fill="#4DAFFF"/>
<path d="M219.067 97.1505C219.038 95.59 221.056 94.9467 221.936 96.2356L225.001 100.725C226.793 103.349 229.785 104.894 232.961 104.836L238.397 104.737C239.957 104.708 240.6 106.726 239.311 107.606L234.822 110.672C232.198 112.463 230.653 115.455 230.711 118.631L230.81 124.067C230.839 125.627 228.821 126.271 227.941 124.982L224.875 120.492C223.084 117.868 220.092 116.323 216.916 116.381L211.48 116.48C209.92 116.509 209.277 114.491 210.565 113.611L215.055 110.546C217.679 108.754 219.224 105.762 219.166 102.586L219.067 97.1505Z" fill="#4DAFFF"/>
<path d="M64.453 45.6639C58.88 46.9973 53.4357 44.206 52.2928 39.4294C51.15 34.6527 54.7414 29.6996 60.3144 28.3662C65.8873 27.0328 71.3315 29.8242 72.4744 34.6008C73.6172 39.3774 70.0259 44.3306 64.453 45.6639Z" fill="var(--fill-0, white)" fill-opacity="0.15"/>
<path d="M56.8346 62.9804C53.2079 63.8481 49.6651 62.0317 48.9214 58.9233C48.1777 55.8149 50.5148 52.5916 54.1414 51.7239C57.768 50.8562 61.3108 52.6727 62.0545 55.7811C62.7982 58.8895 60.4612 62.1127 56.8346 62.9804Z" fill="var(--fill-0, white)" fill-opacity="0.15"/>
</g>
</svg>
