<svg preserveAspectRatio="none" width="100%" height="100%" overflow="visible" style="display: block;" viewBox="0 0 33.4002 33.4002" fill="none" xmlns="http://www.w3.org/2000/svg">
<path id="Star 7" d="M15.1012 1.1909C15.5758 -0.39697 17.8244 -0.396966 18.2989 1.19091L19.9519 6.72204C20.9178 9.95399 23.4462 12.4823 26.6781 13.4482L32.2093 15.1012C33.7971 15.5758 33.7971 17.8244 32.2093 18.2989L26.6781 19.9519C23.4462 20.9178 20.9178 23.4462 19.9519 26.6781L18.2989 32.2093C17.8244 33.7971 15.5758 33.7971 15.1012 32.2093L13.4482 26.6781C12.4823 23.4462 9.95399 20.9178 6.72203 19.9519L1.1909 18.2989C-0.39697 17.8244 -0.396966 15.5758 1.19091 15.1012L6.72204 13.4482C9.95399 12.4823 12.4823 9.95399 13.4482 6.72203L15.1012 1.1909Z" fill="var(--fill-0, #EFEFF5)"/>
</svg>
