<svg preserveAspectRatio="none" width="100%" height="100%" overflow="visible" style="display: block;" viewBox="0 0 89.8078 111.303" fill="none" xmlns="http://www.w3.org/2000/svg">
<g id="bookmark">
<path d="M12.6838 4.05217C13.0333 1.48869 15.3948 -0.306043 17.9583 0.0435135L85.7556 9.28837C88.3191 9.63793 90.1138 11.9994 89.7643 14.5629L77.126 107.246C76.6008 111.098 71.8828 112.67 69.1511 109.904L43.8807 84.3131C42.3868 82.8002 40.0615 82.4831 38.2171 83.5408L7.01743 101.432C3.64489 103.366 -0.479739 100.587 0.0455263 96.7349L12.6838 4.05217Z" fill="#4DAFFF"/>
<path d="M32.835 21.7893C29.4602 23.3889 25.6128 22.3407 24.2418 19.4481C22.8708 16.5555 24.4953 12.9138 27.8701 11.3142C31.245 9.71463 35.0923 10.7629 36.4633 13.6555C37.8343 16.5481 36.2099 20.1897 32.835 21.7893Z" fill="var(--fill-0, white)" fill-opacity="0.15"/>
<path d="M22.4375 33.6875C20.0979 34.7964 17.4307 34.0698 16.4803 32.0645C15.5298 30.0592 16.656 27.5347 18.9956 26.4257C21.3352 25.3168 24.0023 26.0435 24.9527 28.0488C25.9032 30.0541 24.7771 32.5786 22.4375 33.6875Z" fill="var(--fill-0, white)" fill-opacity="0.15"/>
</g>
</svg>
