<svg preserveAspectRatio="none" width="100%" height="100%" overflow="visible" style="display: block;" viewBox="0 0 96.9547 83.6349" fill="none" xmlns="http://www.w3.org/2000/svg">
<g id="flowers">
<path d="M25.9466 1.65836C29.9727 5.29797 27.2759 8.78666 24.4977 12.0196C28.5612 13.3037 32.6714 14.8694 31.1637 20.0627C28.972 25.0086 24.7637 23.5292 20.8484 21.8849C20.8844 26.1423 20.6592 30.6041 15.2469 30.7526C9.87027 30.1927 9.9799 25.7416 10.3354 21.5111C6.30409 22.8632 1.9992 24.0231 0.184458 18.9289C-0.947705 13.6296 3.33514 12.3632 7.47425 11.3869C4.94798 7.94743 2.52163 4.25764 6.80919 0.934692C11.4844 -1.7688 14.0213 1.89518 16.2157 5.529C18.7019 2.05992 21.457 -1.39944 25.9499 1.65292L25.9466 1.65836Z" fill="var(--fill-0, #FFCF7B)"/>
<path d="M94.7488 57.1662C90.9742 53.2677 87.5768 56.0818 84.4416 58.9673C83.0203 54.9499 81.3155 50.8955 76.1763 52.5787C71.3085 54.9369 72.9302 59.0942 74.7051 62.9495C70.4511 63.0596 65.9981 63.4368 66.0337 68.851C66.7772 74.205 71.2206 73.9441 75.4383 73.4447C74.2232 77.5198 73.21 81.8606 78.3654 83.502C83.6983 84.453 84.8176 80.1287 85.654 75.9601C89.1762 78.3671 92.9469 80.6681 96.1213 76.2689C98.6643 71.5051 94.916 69.0941 91.2105 67.023C94.5923 64.4215 97.9558 61.5493 94.7531 57.1632L94.7488 57.1662Z" fill="var(--fill-0, #FFCF7B)"/>
<path d="M63.6847 20.5205C67.9933 23.8198 65.5895 27.5179 63.0846 30.9662C67.2399 31.9141 71.4628 33.1404 70.3845 38.439C68.6033 43.5478 64.2876 42.4166 60.2513 41.0966C60.6342 45.3362 60.7748 49.8027 55.391 50.3918C49.9872 50.2711 49.7334 45.8267 49.7441 41.579C45.8362 43.2566 41.6404 44.7643 39.4152 39.8334C37.8554 34.6448 42.0207 33.0332 46.0666 31.7222C43.2684 28.5005 40.5486 25.0223 44.5512 21.3614C48.9906 18.2854 51.8182 21.7298 54.3019 25.1726C56.4974 21.5127 58.9617 17.8396 63.6876 20.5158L63.6847 20.5205Z" fill="var(--fill-0, #FFCF7B)"/>
</g>
</svg>
