<svg preserveAspectRatio="none" width="100%" height="100%" overflow="visible" style="display: block;" viewBox="0 0 97.1263 89.2914" fill="none" xmlns="http://www.w3.org/2000/svg">
<g id="heart">
<path d="M13.1869 13.9628C23.077 8.158 36.6895 10.0793 45.0115 18.4457C48.6473 7.21918 59.9161 -0.655989 71.3626 0.0431113C82.8034 0.744148 93.4577 9.94779 96.266 21.5713C97.8944 28.2899 97.0695 35.4074 94.9775 41.9047C92.887 48.402 89.5775 54.3652 86.1463 60.1964C82.1096 67.0578 77.8713 73.8055 73.1174 80.151C70.5284 83.6073 67.5521 87.1068 63.4885 88.3134C62.9341 88.4786 62.3301 88.6916 61.8471 88.8071C61.3626 88.9226 60.7286 89.0059 60.1588 89.1099C55.9904 89.8734 51.752 88.1 47.8798 86.1892C40.7686 82.6828 33.934 78.5842 27.2297 74.2928C21.5313 70.6466 15.8806 66.8263 11.0754 61.9785C6.26883 57.1308 2.3126 51.1593 0.722463 44.4301C-2.03298 32.7948 3.30094 19.7657 13.1869 13.9628Z" fill="#FF5310"/>
<path d="M22.9704 35.3906C18.7624 36.3974 14.6516 34.2898 13.7886 30.6831C12.9257 27.0764 15.6375 23.3364 19.8455 22.3296C24.0534 21.3228 28.1642 23.4305 29.0271 27.0372C29.89 30.6439 27.1784 34.3838 22.9704 35.3906Z" fill="var(--fill-0, white)" fill-opacity="0.15"/>
<path d="M16.9251 45.4245C14.3766 46.0342 11.8869 44.7578 11.3643 42.5734C10.8417 40.3891 12.484 38.124 15.0326 37.5142C17.5811 36.9045 20.0707 38.181 20.5933 40.3653C21.1159 42.5497 19.4736 44.8147 16.9251 45.4245Z" fill="var(--fill-0, white)" fill-opacity="0.15"/>
</g>
</svg>
