<svg preserveAspectRatio="none" width="100%" height="100%" overflow="visible" style="display: block;" viewBox="0 0 63.1673 63.1672" fill="none" xmlns="http://www.w3.org/2000/svg">
<g id="Message">
<path d="M34.5561 0.142358C51.9207 1.78402 64.6666 17.1916 63.0249 34.5561C62.5363 39.7239 60.8284 44.4824 58.2126 48.5746C57.7091 49.3623 57.5274 50.3206 57.7662 51.2245L59.853 59.121C60.1015 60.0612 59.2389 60.9178 58.3005 60.6628L50.1393 58.4456C49.2715 58.2098 48.3487 58.3626 47.5736 58.8186C42.0469 62.0698 35.4827 63.6746 28.6111 63.0249C11.2466 61.3832 -1.49931 45.9757 0.142358 28.6111C1.78402 11.2466 17.1916 -1.49931 34.5561 0.142358Z" fill="#44C67F"/>
<path d="M23.2455 23.763C19.8706 25.3626 16.0233 24.3144 14.6523 21.4218C13.2813 18.5291 14.9057 14.8875 18.2806 13.2879C21.6555 11.6883 25.5027 12.7365 26.8738 15.6291C28.2448 18.5217 26.6204 22.1634 23.2455 23.763Z" fill="var(--fill-0, white)" fill-opacity="0.15"/>
<path d="M14.848 33.6611C12.5084 34.77 9.84125 34.0434 8.89081 32.0381C7.94036 30.0328 9.0665 27.5083 11.4061 26.3994C13.7457 25.2905 16.4128 26.0171 17.3632 28.0224C18.3137 30.0277 17.1876 32.5522 14.848 33.6611Z" fill="var(--fill-0, white)" fill-opacity="0.15"/>
</g>
</svg>
