<svg preserveAspectRatio="none" width="100%" height="100%" overflow="visible" style="display: block;" viewBox="0 0 119.264 119.264" fill="none" xmlns="http://www.w3.org/2000/svg">
<g id="blue gear">
<path d="M45.2374 7.54263C37.0312 -1.77176 21.8267 6.22875 24.8549 18.2676C26.8033 26.0606 20.6248 33.4795 12.6197 32.9856C0.215028 32.1992 -4.86253 48.6107 5.79483 54.9678C12.6924 59.0816 13.5735 68.7291 7.54301 74.0264C-1.77137 82.2326 6.22789 97.4383 18.2667 94.4102C26.061 92.4605 33.4799 98.639 32.986 106.644C32.1996 119.049 48.6111 124.126 54.9682 113.469C59.0819 106.571 68.7295 105.69 74.0256 111.722C82.233 121.035 97.4375 113.035 94.4105 100.997C92.4608 93.2029 98.6395 85.784 106.643 86.2791C119.049 87.0643 124.127 70.6527 113.468 64.2969C106.572 60.1819 105.689 50.5355 111.722 45.2383C121.036 37.0309 113.035 21.8264 100.996 24.8545C93.2033 26.803 85.7844 20.6244 86.2795 12.6206C87.0647 0.214655 70.6531 -4.86291 64.2973 5.79572C60.1823 12.692 50.5359 13.5744 45.2374 7.54263ZM77.8685 50.0371C90.3159 73.9514 54.0338 93.0419 41.3756 69.2378C28.927 45.3246 65.2091 26.2341 77.8685 50.0371Z" fill="#7DC4FF"/>
<path d="M95.4127 92.5987C94.1156 95.0569 93.6605 97.9987 94.4105 100.997C95.7245 106.224 93.6001 110.687 90.1056 113.305C86.0719 114.958 81.1576 114.49 77.3428 110.682C76.2324 109.578 74.9738 108.747 73.6434 108.176L56.4434 80.0313C58.3691 80.2476 60.3186 80.1775 62.2329 79.8494C68.8854 79.2717 75.1853 75.647 78.3695 68.3087C78.7178 67.6316 79.0237 66.9321 79.2894 66.2135L95.4127 92.5987Z" fill="var(--fill-0, #A2D5FF)"/>
<path d="M29.1734 5.94409C33.2035 4.30053 38.11 4.77489 41.9194 8.57677C43.0228 9.6751 44.2705 10.5028 45.5938 11.0742L62.8072 39.2424C60.9578 39.0341 59.086 39.0909 57.2447 39.3859C50.4216 39.9023 43.9284 43.6052 40.7458 51.2188C40.4507 51.8137 40.1881 52.4255 39.9562 53.0518L23.8396 26.6816C25.1441 24.22 25.6062 21.2729 24.8549 18.2676C23.538 13.0322 25.669 8.56015 29.1734 5.94409Z" fill="var(--fill-0, #A2D5FF)"/>
</g>
</svg>
