<svg preserveAspectRatio="none" width="100%" height="100%" overflow="visible" style="display: block;" viewBox="0 0 102.723 102.723" fill="none" xmlns="http://www.w3.org/2000/svg">
<g id="orange gear">
<path d="M38.9632 6.49651C31.8952 -1.52603 18.7995 5.36486 21.4076 15.734C23.0859 22.4461 17.7643 28.8361 10.8695 28.4107C0.185205 27.7334 -4.18813 41.8687 4.99113 47.3441C10.9321 50.8873 11.6909 59.1968 6.49685 63.7594C-1.5257 70.8274 5.36413 83.9243 15.7333 81.3161C22.4465 79.6368 28.8365 84.9584 28.411 91.8532C27.7337 102.537 41.8691 106.911 47.3444 97.7316C50.8877 91.7906 59.1972 91.0318 63.7587 96.2269C70.8278 104.248 83.9236 97.3576 81.3164 86.9895C79.6371 80.2763 84.9588 73.8863 91.8525 74.3127C102.538 74.9891 106.911 60.8536 97.7308 55.3793C91.791 51.8351 91.0311 43.5266 96.2273 38.964C104.249 31.8949 97.3579 18.7992 86.9887 21.4074C80.2766 23.0856 73.8866 17.7639 74.3131 10.8702C74.9894 0.184884 60.854 -4.18846 55.3797 4.99189C51.8354 10.9317 43.5269 11.6917 38.9632 6.49651ZM67.0687 43.0973C77.7896 63.6949 46.5396 80.1376 35.6371 59.635C24.915 39.0384 56.1651 22.5956 67.0687 43.0973Z" fill="#F5672C"/>
<path d="M82.1796 79.7559C81.0624 81.8731 80.6704 84.4069 81.3164 86.9895C82.4482 91.491 80.6184 95.3354 77.6085 97.59C74.1343 99.0137 69.9016 98.6109 66.6159 95.331C65.6594 94.3806 64.5754 93.6648 63.4296 93.1728L48.615 68.9315C50.2737 69.1178 51.9528 69.0574 53.6016 68.7748C59.3314 68.2772 64.7576 65.1553 67.5002 58.8347C67.8002 58.2515 68.0636 57.649 68.2925 57.0301L82.1796 79.7559Z" fill="var(--fill-0, white)" fill-opacity="0.25"/>
<path d="M25.1272 5.11968C28.5984 3.70407 32.8244 4.11264 36.1054 7.38723C37.0558 8.33322 38.1305 9.04615 39.2702 9.5383L54.0962 33.7997C52.5034 33.6203 50.8911 33.6693 49.3052 33.9234C43.4285 34.3681 37.8358 37.5574 35.0946 44.1151C34.8405 44.6275 34.6143 45.1545 34.4145 45.6939L20.5332 22.9811C21.6568 20.8608 22.0548 18.3225 21.4076 15.734C20.2734 11.2247 22.1089 7.37291 25.1272 5.11968Z" fill="var(--fill-0, white)" fill-opacity="0.25"/>
</g>
</svg>
