<svg preserveAspectRatio="none" width="100%" height="100%" overflow="visible" style="display: block;" viewBox="0 0 48.1728 48.1728" fill="none" xmlns="http://www.w3.org/2000/svg">
<path id="Star 4" d="M21.7804 1.71763C22.4648 -0.572547 25.708 -0.572541 26.3924 1.71764L28.7765 9.69514C30.1696 14.3566 33.8162 18.0032 38.4776 19.3963L46.4551 21.7804C48.7453 22.4648 48.7453 25.708 46.4551 26.3924L38.4776 28.7765C33.8162 30.1696 30.1696 33.8162 28.7765 38.4776L26.3924 46.4551C25.708 48.7453 22.4648 48.7453 21.7804 46.4551L19.3963 38.4776C18.0032 33.8162 14.3566 30.1696 9.69513 28.7765L1.71763 26.3924C-0.572547 25.708 -0.572541 22.4648 1.71764 21.7804L9.69514 19.3963C14.3566 18.0032 18.0032 14.3566 19.3963 9.69513L21.7804 1.71763Z" fill="var(--fill-0, #44C67F)"/>
</svg>
