<svg preserveAspectRatio="none" width="100%" height="100%" overflow="visible" style="display: block;" viewBox="0 0 86 43" fill="none" xmlns="http://www.w3.org/2000/svg">
<g id="message green">
<path d="M64.5 0C76.3741 0 86 9.62588 86 21.5V40.4637C85.9996 42.2065 84.0342 43.225 82.6102 42.22L78.1509 39.0725C77.7677 38.802 77.2548 38.8135 76.8714 39.0838C73.3727 41.5502 69.106 43 64.5 43H21.5C9.62588 43 0 33.3741 0 21.5C0 9.62588 9.62588 0 21.5 0H64.5Z" fill="#44C67F"/>
<path d="M49.45 21.5C49.45 25.0622 46.5622 27.95 43 27.95C39.4378 27.95 36.55 25.0622 36.55 21.5C36.55 17.9378 39.4378 15.05 43 15.05C46.5622 15.05 49.45 17.9378 49.45 21.5Z" fill="var(--fill-0, white)"/>
<path d="M68.8 21.5C68.8 25.0622 65.9122 27.95 62.35 27.95C58.7878 27.95 55.9 25.0622 55.9 21.5C55.9 17.9378 58.7878 15.05 62.35 15.05C65.9122 15.05 68.8 17.9378 68.8 21.5Z" fill="var(--fill-0, white)"/>
<path d="M30.1 21.5C30.1 25.0622 27.2122 27.95 23.65 27.95C20.0878 27.95 17.2 25.0622 17.2 21.5C17.2 17.9378 20.0878 15.05 23.65 15.05C27.2122 15.05 30.1 17.9378 30.1 21.5Z" fill="var(--fill-0, white)"/>
</g>
</svg>
