<svg preserveAspectRatio="none" width="100%" height="100%" overflow="visible" style="display: block;" viewBox="0 0 142 71" fill="none" xmlns="http://www.w3.org/2000/svg">
<g id="message blue">
<path d="M106.5 0C126.106 0 142 15.8939 142 35.5V66.8121C141.999 69.6899 138.754 71.3715 136.403 69.7121L129.04 64.5151C128.407 64.0685 127.56 64.0875 126.927 64.5337C121.15 68.6061 114.105 71 106.5 71H35.5C15.8939 71 0 55.1061 0 35.5C0 15.8939 15.8939 0 35.5 0H106.5Z" fill="#4DAFFF"/>
<path d="M81.65 35.5C81.65 41.3818 76.8818 46.15 71 46.15C65.1182 46.15 60.35 41.3818 60.35 35.5C60.35 29.6182 65.1182 24.85 71 24.85C76.8818 24.85 81.65 29.6182 81.65 35.5Z" fill="var(--fill-0, white)"/>
<path d="M113.6 35.5C113.6 41.3818 108.832 46.15 102.95 46.15C97.0682 46.15 92.3 41.3818 92.3 35.5C92.3 29.6182 97.0682 24.85 102.95 24.85C108.832 24.85 113.6 29.6182 113.6 35.5Z" fill="var(--fill-0, white)"/>
<path d="M49.7 35.5C49.7 41.3818 44.9318 46.15 39.05 46.15C33.1682 46.15 28.4 41.3818 28.4 35.5C28.4 29.6182 33.1682 24.85 39.05 24.85C44.9318 24.85 49.7 29.6182 49.7 35.5Z" fill="var(--fill-0, white)"/>
</g>
</svg>
