<svg preserveAspectRatio="none" width="100%" height="100%" overflow="visible" style="display: block;" viewBox="0 0 92 94.4614" fill="none" xmlns="http://www.w3.org/2000/svg">
<g id="mascot">
<path d="M54.2523 33.6264C56.4142 41.3299 49.9288 44.6165 35.4826 48.6706C21.0364 52.7247 16.3344 65.6842 12.0597 65.754C7.78496 65.8238 7.82433 46.0335 21.3952 34.7817C34.966 23.5298 52.0904 25.923 54.2523 33.6264Z" fill="#7B3115"/>
<path d="M38.9497 35.9797C36.7878 43.6832 43.2732 46.9697 57.7193 51.0239C72.1655 55.078 76.8675 68.0375 81.1423 68.1073C85.417 68.1771 85.3776 48.3868 71.8068 37.1349C58.2359 25.8831 41.1116 28.2762 38.9497 35.9797Z" fill="#60250E"/>
<path d="M13.8849 30.3246H80.2916L78.8353 59.4503L78.2275 66.2045C77.0259 79.5547 67.3912 90.6258 54.3347 93.6591C49.7577 94.7224 44.9731 94.727 40.3915 93.6836C27.0682 90.6496 17.1331 79.3595 15.9082 65.7502L15.3412 59.4503L13.8849 30.3246Z" fill="#F8CD9E"/>
<path d="M39.0273 31.7388C43.2807 35.199 50.2817 32.4933 54.3559 20.942C58.4302 9.3907 67.6695 5.71484 66.6617 1.70711C65.6538 -2.30061 50.5583 1.05947 44.4702 8.53656C38.3821 16.0137 34.7739 28.2786 39.0273 31.7388Z" fill="#B25C32"/>
<path d="M53.6722 17.8121C54.1055 23.6792 47.3439 28.1194 34.5324 24.5085C21.721 20.8975 12.7041 26.6923 9.76512 23.3226C6.82617 19.9529 19.2043 8.8425 29.6434 8.16299C40.0825 7.48349 53.239 11.9451 53.6722 17.8121Z" fill="#98441F"/>
<path d="M41.6316 26.7546C42.8874 32.092 50.084 34.2237 60.3635 27.563C70.643 20.9024 80.2046 23.6325 81.8534 19.8432C83.5022 16.0538 69.4955 9.49807 60.1087 11.7025C50.7218 13.9069 40.3757 21.4173 41.6316 26.7546Z" fill="#B5501F"/>
<path d="M50.9964 31.2378C50.5197 38.6115 43.3947 39.4575 28.5827 38.4997C13.7707 37.5419 5.17703 47.3576 1.16023 46.0911C-2.85656 44.8247 3.59447 27.6182 19.9215 22.0418C36.2485 16.4654 51.4732 23.8642 50.9964 31.2378Z" fill="#A25028"/>
<path d="M41.5301 29.7211C41.9351 35.9851 48.9948 36.6387 63.6962 35.6881C78.3975 34.7375 86.8315 43.0027 90.8276 41.8891C94.8236 40.7754 88.5831 26.2076 72.4391 21.6174C56.2952 17.0272 41.1251 23.4571 41.5301 29.7211Z" fill="#A24E16"/>
<path d="M49.6515 29.5428C51.3595 37.3595 44.6931 40.2613 30.0346 43.4642C15.3762 46.6671 9.92482 59.3296 5.6533 59.1494C1.38179 58.9692 2.57777 39.2151 16.7831 28.7756C30.9884 18.3362 47.9436 21.7261 49.6515 29.5428Z" fill="#98441F"/>
<path d="M42.6701 26.8052C40.7187 35.7358 47.3646 38.8391 62.0703 42.0523C76.776 45.2655 81.9118 59.4938 86.2295 59.165C90.5471 58.8362 89.9135 36.4272 75.8754 24.9789C61.8373 13.5307 44.6214 17.8746 42.6701 26.8052Z" fill="#B25C32"/>
<path d="M45.7702 14.8781C50.4764 18.4082 49.3781 26.4225 38.2356 33.7037C27.0931 40.985 25.533 51.5892 21.0618 51.5891C16.5905 51.5889 16.354 34.9575 22.7038 26.6439C29.0536 18.3302 41.064 11.3481 45.7702 14.8781Z" fill="#C05A28"/>
<path d="M45.3898 13.2544C41.4921 16.2788 41.4383 23.3175 50.3611 29.1482C59.2839 34.9789 64.6092 46.65 68.2469 46.5625C71.8845 46.475 73.0469 32.8954 65.4217 22.5588C57.7965 12.2221 49.2876 10.2301 45.3898 13.2544Z" fill="#CE7D46"/>
<path d="M67.54 71.6377C67.54 72.3598 66.9547 72.9451 66.2326 72.9451C65.5106 72.9451 64.9253 72.3598 64.9253 71.6377C64.9253 70.9157 65.5106 70.3304 66.2326 70.3304C66.9547 70.3304 67.54 70.9157 67.54 71.6377Z" fill="#E5A768"/>
<path d="M27.063 71.6377C27.063 72.3598 27.6483 72.9451 28.3704 72.9451C29.0924 72.9451 29.6777 72.3598 29.6777 71.6377C29.6777 70.9157 29.0924 70.3304 28.3704 70.3304C27.6483 70.3304 27.063 70.9157 27.063 71.6377Z" fill="#E5A768"/>
<path d="M65.4478 76.3443C65.4478 77.0663 64.8625 77.6517 64.1404 77.6517C63.4184 77.6517 62.8331 77.0663 62.8331 76.3443C62.8331 75.6222 63.4184 75.0369 64.1404 75.0369C64.8625 75.0369 65.4478 75.6222 65.4478 76.3443Z" fill="#E5A768"/>
<path d="M29.1552 76.3443C29.1552 77.0663 29.7405 77.6517 30.4626 77.6517C31.1846 77.6517 31.7699 77.0663 31.7699 76.3443C31.7699 75.6222 31.1846 75.0369 30.4626 75.0369C29.7405 75.0369 29.1552 75.6222 29.1552 76.3443Z" fill="#E5A768"/>
<path d="M61.6826 73.7819C61.6826 74.5039 61.0972 75.0893 60.3752 75.0893C59.6531 75.0893 59.0678 74.5039 59.0678 73.7819C59.0678 73.0598 59.6531 72.4745 60.3752 72.4745C61.0972 72.4745 61.6826 73.0598 61.6826 73.7819Z" fill="#E5A768"/>
<path d="M32.9204 73.7819C32.9204 74.5039 33.5058 75.0893 34.2278 75.0893C34.9499 75.0893 35.5352 74.5039 35.5352 73.7819C35.5352 73.0598 34.9499 72.4745 34.2278 72.4745C33.5058 72.4745 32.9204 73.0598 32.9204 73.7819Z" fill="#E5A768"/>
<path d="M54.75 72.5726C55.071 72.0077 55.7896 71.81 56.3546 72.1309C56.9195 72.4519 57.1173 73.1704 56.7963 73.7354L56.6294 74.0291C52.4322 81.4163 41.7226 81.2288 37.7867 73.6991C37.4857 73.1233 37.7086 72.4121 38.2844 72.1111C38.8603 71.8101 39.5714 72.0331 39.8724 72.6089C42.9454 78.4874 51.3062 78.634 54.5832 72.8667L54.75 72.5726Z" fill="var(--fill-0, #343433)"/>
<path d="M29.2469 64.2952C31.4706 57.9141 40.4124 58.0844 42.7538 64.2653C42.984 64.873 42.678 65.5523 42.0704 65.7826C41.4627 66.0127 40.7834 65.7067 40.5531 65.0991C38.9378 60.8348 32.9207 60.9029 31.4687 65.0692C31.2548 65.6828 30.5844 66.0069 29.9708 65.7931C29.3572 65.5792 29.0331 64.9088 29.2469 64.2952Z" fill="var(--fill-0, #343433)"/>
<path d="M51.8383 64.2952C54.062 57.9141 63.0038 58.0844 65.3453 64.2653C65.5754 64.873 65.2695 65.5523 64.6618 65.7826C64.0541 66.0127 63.3748 65.7067 63.1446 65.0991C61.5292 60.8348 55.5122 60.9029 54.0601 65.0692C53.8463 65.6828 53.1758 66.0069 52.5622 65.7931C51.9487 65.5792 51.6245 64.9088 51.8383 64.2952Z" fill="var(--fill-0, #343433)"/>
</g>
</svg>
