<svg preserveAspectRatio="none" width="100%" height="100%" overflow="visible" style="display: block;" viewBox="0 0 25.8985 25.8985" fill="none" xmlns="http://www.w3.org/2000/svg">
<path id="Star 5" d="M11.7095 0.923428C12.0775 -0.307811 13.8211 -0.307808 14.189 0.923431L15.4708 5.21228C16.2197 7.71834 18.1802 9.67882 20.6863 10.4278L24.9751 11.7095C26.2063 12.0775 26.2063 13.8211 24.9751 14.189L20.6863 15.4708C18.1802 16.2197 16.2197 18.1802 15.4708 20.6863L14.189 24.9751C13.8211 26.2063 12.0775 26.2063 11.7095 24.9751L10.4278 20.6863C9.67882 18.1802 7.71833 16.2197 5.21227 15.4708L0.923428 14.189C-0.307811 13.8211 -0.307808 12.0775 0.923431 11.7095L5.21228 10.4278C7.71834 9.67882 9.67882 7.71833 10.4278 5.21227L11.7095 0.923428Z" fill="var(--fill-0, #F5672C)"/>
</svg>
